<?xml version="1.0" standalone="no"?>
<!DOCTYPE svg PUBLIC "-//W3C//DTD SVG 20010904//EN"
 "http://www.w3.org/TR/2001/REC-SVG-20010904/DTD/svg10.dtd">
<svg version="1.0" xmlns="http://www.w3.org/2000/svg"
 width="790.000000pt" height="788.000000pt" viewBox="0 0 790.000000 788.000000"
 preserveAspectRatio="xMidYMid meet">

<g transform="translate(0.000000,788.000000) scale(0.100000,-0.100000)"
fill="#000000" stroke="none">
<path d="M3675 6180 c-8 -27 3 -76 20 -90 11 -9 16 -4 25 30 6 22 8 50 5 60
-8 26 -42 26 -50 0z"/>
<path d="M4556 6155 c-10 -28 -7 -55 8 -55 19 0 38 26 34 47 -4 23 -34 29 -42
8z"/>
<path d="M3328 6134 c-8 -18 -9 -31 -2 -42 16 -25 33 -26 43 -1 18 50 -20 90
-41 43z"/>
<path d="M3195 6050 c-4 -6 -4 -22 -1 -36 8 -31 36 -32 36 0 0 28 -24 53 -35
36z"/>
<path d="M3381 6004 c0 -11 3 -14 6 -6 3 7 2 16 -1 19 -3 4 -6 -2 -5 -13z"/>
<path d="M3495 5993 c-39 -43 -32 -69 9 -38 23 17 72 20 81 5 10 -16 25 -11
25 8 0 11 -8 26 -18 35 -28 25 -68 21 -97 -10z"/>
<path d="M3730 5977 c0 -61 -35 -92 -95 -83 -23 3 -63 -2 -94 -11 l-55 -16
-22 28 c-25 32 -39 27 -59 -21 -11 -26 -20 -34 -40 -34 -37 0 -82 26 -99 58
-15 26 -15 26 -16 -34 l0 -62 69 -7 c39 -4 77 -3 87 3 11 5 66 14 124 21 58 7
120 14 139 16 19 2 47 16 63 32 26 25 29 33 26 87 -4 73 -28 93 -28 23z"/>
<path d="M5115 5986 c-17 -17 -25 -36 -25 -61 0 -37 15 -47 25 -16 3 10 14 29
25 41 39 44 16 77 -25 36z"/>
<path d="M4653 5968 c-31 -15 -29 -27 7 -40 17 -5 35 -19 41 -30 8 -15 13 -17
25 -7 20 16 17 46 -6 69 -22 22 -35 24 -67 8z"/>
<path d="M2828 5935 c-10 -13 -18 -27 -18 -30 0 -10 50 38 50 48 0 14 -15 6
-32 -18z"/>
<path d="M4515 5904 c-15 -23 -21 -25 -53 -19 -21 4 -76 9 -123 12 -82 4 -87
3 -117 -22 -50 -42 -37 -89 14 -50 10 8 31 15 45 15 14 0 40 5 58 11 26 9 38
8 73 -11 31 -16 66 -23 137 -27 88 -4 98 -3 115 16 18 20 18 20 -33 27 -43 6
-54 11 -66 35 -21 40 -31 42 -50 13z"/>
<path d="M5226 5864 c-3 -9 -6 -24 -6 -33 0 -10 -9 -26 -19 -35 -10 -9 -22
-37 -25 -61 -4 -24 -14 -49 -21 -55 -16 -13 -21 -44 -7 -38 5 2 25 22 45 44
25 28 37 51 37 71 0 16 7 38 15 49 19 25 20 74 1 74 -8 0 -17 -7 -20 -16z"/>
<path d="M2880 5852 c0 -23 19 -42 42 -42 20 0 23 12 8 41 -14 24 -50 25 -50
1z"/>
<path d="M4890 5846 c0 -28 37 -47 51 -25 11 18 -8 49 -31 49 -14 0 -20 -7
-20 -24z"/>
<path d="M5056 5818 c-3 -7 -7 -25 -10 -40 -5 -21 -14 -29 -42 -34 -22 -4 -40
-2 -47 5 -6 6 -26 11 -44 11 -26 0 -36 6 -45 25 -14 30 -34 32 -43 4 -5 -15 1
-29 19 -48 14 -15 26 -33 26 -40 0 -9 11 -12 38 -9 20 3 47 1 60 -3 14 -5 31
-5 41 0 28 15 71 84 71 114 0 27 -17 38 -24 15z"/>
<path d="M3099 5784 c-7 -8 -25 -22 -41 -30 -25 -13 -31 -13 -52 1 -21 14 -25
14 -36 0 -16 -20 -6 -45 19 -45 11 0 23 -4 26 -10 12 -20 52 -9 81 21 26 27
34 30 70 25 43 -6 64 6 64 35 0 23 -111 26 -131 3z"/>
<path d="M3993 5764 c-9 -25 37 -63 100 -80 53 -16 58 -16 83 1 33 22 24 30
-56 50 -36 9 -75 23 -87 31 -28 18 -32 18 -40 -2z"/>
<path d="M4247 5756 c-9 -22 18 -40 33 -22 6 9 9 20 5 26 -9 15 -32 12 -38 -4z"/>
<path d="M2893 5713 c-7 -2 -13 -13 -13 -23 0 -10 6 -20 13 -23 20 -7 47 12
47 33 0 20 -19 25 -47 13z"/>
<path d="M2562 5648 c-21 -21 -14 -38 18 -38 35 0 37 -7 10 -53 -19 -32 -85
-87 -105 -87 -17 0 -76 -73 -66 -83 31 -31 143 37 154 92 5 22 14 32 42 41 55
18 63 44 27 94 -31 43 -59 55 -80 34z"/>
<path d="M4780 5627 c-36 -25 -41 -32 -26 -35 29 -6 96 28 96 50 0 26 -18 22
-70 -15z"/>
<path d="M5545 5624 c-16 -16 -15 -29 9 -87 10 -26 12 -27 34 -12 16 12 22 26
22 54 0 56 -31 78 -65 45z"/>
<path d="M5742 5541 c-31 -38 -41 -71 -23 -71 18 0 81 80 75 95 -9 23 -18 19
-52 -24z"/>
<path d="M2377 5502 c-17 -19 -24 -62 -9 -62 17 1 74 59 68 69 -11 17 -41 13
-59 -7z"/>
<path d="M5380 5501 c0 -40 114 -87 139 -57 16 20 6 36 -23 36 -13 0 -31 9
-41 20 -24 27 -75 27 -75 1z"/>
<path d="M4063 5480 c-49 -16 -65 -82 -42 -176 9 -33 9 -52 1 -70 l-12 -24
-188 0 c-175 0 -191 -2 -215 -20 -36 -28 -54 -96 -62 -225 -13 -229 -31 -276
-108 -274 -23 0 -77 -6 -120 -14 -89 -16 -121 -40 -132 -94 -3 -20 -13 -46
-21 -58 -7 -12 -17 -44 -20 -71 -6 -43 -46 -124 -63 -124 -179 -4 -470 -1
-543 5 -180 14 -238 -17 -238 -127 0 -52 3 -63 29 -89 16 -16 37 -29 46 -29
10 0 44 -14 76 -31 51 -28 60 -37 70 -72 12 -45 5 -101 -17 -135 -26 -40 -36
-130 -22 -201 12 -62 11 -64 -17 -120 -17 -31 -42 -70 -57 -88 -43 -52 -100
-155 -106 -193 -3 -19 -13 -51 -24 -70 -12 -23 -18 -56 -18 -97 0 -55 3 -66
30 -97 38 -42 74 -52 122 -32 40 17 62 42 98 110 14 25 31 48 38 51 7 2 93 5
192 5 l180 1 48 -28 c26 -16 72 -40 104 -53 38 -15 68 -37 92 -66 24 -28 65
-58 116 -85 49 -25 99 -61 128 -91 56 -59 89 -78 135 -78 42 0 193 66 225 98
27 27 33 27 80 3 20 -10 49 -21 64 -25 30 -7 90 14 121 42 15 14 50 17 210 22
106 3 211 2 235 -2 23 -4 52 -3 65 2 25 11 456 30 666 30 145 0 181 7 219 42
19 19 22 32 22 95 0 52 -6 85 -19 111 -10 20 -21 49 -25 64 -3 14 -26 50 -50
78 -25 29 -48 67 -52 84 -3 17 -15 45 -25 62 -10 17 -19 40 -19 50 0 11 -6 28
-14 39 -7 11 -19 38 -26 60 -7 22 -19 49 -25 60 -7 11 -16 31 -20 45 -4 14
-15 36 -25 50 -17 26 -40 88 -65 175 -16 55 -25 77 -61 148 -13 26 -24 52 -24
58 0 7 -8 30 -19 53 -38 84 -64 153 -83 221 -10 39 -30 93 -43 120 -48 101
-75 168 -75 185 0 9 -9 29 -21 44 -11 14 -19 36 -17 48 2 19 11 24 48 29 25 3
57 11 71 16 37 16 89 79 89 110 0 41 -72 129 -117 143 -42 14 -89 38 -115 59
-10 7 -50 30 -90 50 -103 52 -179 98 -253 154 -36 26 -69 47 -74 47 -6 0 -36
21 -67 46 -62 50 -109 62 -171 44z m-703 -1041 c171 -64 316 -94 412 -86 78 7
96 -7 61 -46 -29 -32 -34 -43 -27 -61 8 -22 36 -20 96 6 50 21 52 22 117 5 79
-21 169 -64 182 -88 7 -13 0 -27 -26 -59 -19 -23 -35 -46 -35 -50 0 -5 -20
-16 -45 -25 -24 -10 -52 -26 -61 -36 -23 -26 -47 -24 -82 6 -17 14 -47 32 -69
41 -21 9 -51 28 -68 44 -33 31 -220 93 -314 104 -79 10 -118 29 -136 68 -22
48 -51 94 -75 118 -19 19 -27 60 -13 73 10 11 24 8 83 -14z m504 -855 c9 -8
17 -21 17 -27 4 -37 -1 -240 -7 -285 -7 -60 1 -57 -154 -72 -94 -10 -210 -28
-296 -45 -21 -5 -34 -2 -44 9 -21 26 18 142 80 236 16 25 36 59 43 75 28 58
65 82 140 90 38 4 87 13 110 20 58 18 93 18 111 -1z m241 -9 c39 -8 91 -14
118 -15 46 0 49 -2 77 -47 17 -26 30 -51 30 -56 0 -5 9 -20 20 -34 11 -14 20
-32 20 -39 0 -7 11 -30 25 -50 14 -20 25 -45 25 -55 0 -11 9 -28 20 -39 28
-28 35 -64 15 -80 -13 -11 -31 -10 -108 4 -126 24 -327 47 -353 41 -40 -9 -47
16 -52 189 -3 117 -1 169 8 186 13 25 16 25 155 -5z"/>
<path d="M5685 5439 c-4 -6 -5 -12 -2 -15 2 -3 7 2 10 11 7 17 1 20 -8 4z"/>
<path d="M5627 5373 c-27 -26 36 -105 94 -118 40 -9 64 11 34 29 -11 6 -39 30
-62 54 -43 42 -54 48 -66 35z"/>
<path d="M5804 5363 c4 -9 14 -39 23 -65 9 -29 26 -56 43 -68 36 -26 43 -54
19 -76 -29 -26 -23 -50 23 -100 66 -71 121 -90 183 -62 24 11 44 52 32 64 -7
7 -46 -13 -74 -39 -16 -14 -23 -16 -23 -7 0 7 -22 34 -49 59 -27 25 -51 55
-53 66 -3 17 2 20 40 19 52 -1 53 11 5 63 -21 22 -59 67 -85 101 -32 41 -55
62 -69 62 -16 0 -19 -4 -15 -17z"/>
<path d="M2246 5352 c-10 -16 25 -52 49 -52 42 0 41 26 -2 49 -26 13 -40 14
-47 3z"/>
<path d="M2537 5332 c-3 -4 -9 -32 -13 -60 -5 -43 -4 -52 8 -52 26 0 39 27 36
71 -3 40 -19 61 -31 41z"/>
<path d="M2087 5264 c-7 -8 2 -35 20 -56 21 -24 8 -54 -40 -87 -23 -16 -57
-47 -75 -70 -19 -23 -45 -46 -58 -51 -31 -12 -31 -27 0 -42 20 -9 31 -7 58 9
29 17 40 32 68 93 4 8 16 16 28 18 20 3 92 74 92 90 0 12 -71 102 -80 102 -4
0 -9 -3 -13 -6z"/>
<path d="M2380 5164 c-23 -54 -25 -74 -7 -74 20 0 67 53 67 76 0 20 -17 44
-32 44 -4 0 -16 -21 -28 -46z"/>
<path d="M1917 5153 c-12 -11 -7 -33 7 -33 7 0 16 9 19 20 5 19 -12 28 -26 13z"/>
<path d="M6168 5154 c-11 -10 3 -34 19 -34 8 0 13 7 11 17 -3 18 -20 27 -30
17z"/>
<path d="M2262 5125 c-18 -39 -14 -50 8 -30 20 18 28 55 12 55 -5 0 -14 -11
-20 -25z"/>
<path d="M1730 5080 c0 -12 36 -40 51 -40 8 0 30 -11 49 -25 39 -29 63 -32 58
-8 -5 27 -158 99 -158 73z"/>
<path d="M6342 5038 c-6 -6 -12 -25 -12 -41 0 -35 37 -100 53 -94 16 5 27 79
18 114 -8 31 -38 42 -59 21z"/>
<path d="M1762 4908 c3 -7 15 -15 28 -16 21 -3 22 -2 11 12 -16 19 -44 21 -39
4z"/>
<path d="M1820 4858 c0 -27 -9 -43 -45 -78 -25 -24 -45 -53 -45 -65 0 -27 -51
-82 -84 -91 -16 -4 -46 1 -74 11 -87 31 -119 38 -136 32 -25 -10 -10 -25 32
-33 20 -4 77 -19 125 -35 82 -27 89 -28 112 -13 13 9 38 44 54 77 20 41 41 70
65 86 54 35 63 99 19 129 -22 14 -23 13 -23 -20z"/>
<path d="M6519 4855 c-14 -8 -34 -26 -44 -41 l-17 -27 28 8 c16 4 40 9 53 11
30 3 44 17 39 40 -4 24 -26 27 -59 9z"/>
<path d="M6335 4809 c-4 -11 -4 -23 -2 -26 9 -8 27 7 27 22 0 23 -18 27 -25 4z"/>
<path d="M6167 4803 c-13 -13 -7 -34 21 -69 15 -18 35 -34 45 -34 25 0 74 26
80 44 8 21 -8 29 -32 16 -17 -8 -26 -5 -54 20 -35 30 -48 35 -60 23z"/>
<path d="M1869 4674 c-5 -15 -7 -29 -5 -32 10 -9 36 20 36 39 0 28 -19 23 -31
-7z"/>
<path d="M6502 4662 c-95 -49 -155 -112 -107 -112 37 0 180 92 180 115 0 28
-15 27 -73 -3z"/>
<path d="M887 3853 c-11 -10 -8 -43 3 -43 6 0 10 11 10 25 0 26 -2 29 -13 18z"/>
<path d="M7073 3825 c0 -22 2 -30 4 -17 2 12 2 30 0 40 -3 9 -5 -1 -4 -23z"/>
<path d="M2180 2611 c-6 -16 -20 -37 -31 -47 -10 -9 -19 -23 -19 -30 0 -7 -8
-21 -19 -31 -10 -10 -22 -29 -26 -43 -7 -23 -31 -60 -64 -101 -42 -52 -56
-146 -30 -210 18 -45 99 -136 141 -158 136 -73 153 -79 232 -84 95 -7 121 2
191 65 47 43 51 51 74 139 13 52 32 110 42 129 25 49 49 110 49 126 0 8 -12
19 -27 25 -16 7 -38 16 -49 21 -35 16 -57 6 -67 -32 -5 -19 -17 -46 -28 -61
-10 -15 -19 -33 -19 -41 0 -7 -6 -22 -14 -33 -7 -11 -26 -51 -41 -90 -39 -99
-96 -155 -159 -155 -23 0 -83 32 -145 77 -52 39 -67 132 -28 180 36 45 77 108
77 119 0 6 9 19 20 29 11 10 20 26 20 35 0 10 9 29 21 43 11 15 23 43 26 62 5
32 2 40 -28 65 -46 39 -83 39 -99 1z"/>
<path d="M5556 2591 c-37 -20 -72 -45 -78 -55 -6 -11 -6 -45 1 -98 6 -45 11
-112 11 -149 0 -38 7 -89 16 -114 8 -26 14 -56 12 -68 -4 -31 -38 -26 -63 9
-11 15 -43 51 -70 78 -28 28 -79 84 -114 124 -75 85 -83 86 -182 40 -81 -38
-90 -57 -60 -114 12 -22 21 -57 21 -82 0 -23 6 -58 14 -77 8 -19 18 -56 22
-82 3 -26 15 -65 25 -85 11 -22 19 -58 19 -88 0 -58 13 -90 37 -90 27 0 120
48 127 66 3 9 -3 31 -14 49 -11 18 -20 44 -20 59 0 15 -9 44 -20 66 -11 22
-20 47 -20 57 0 10 -11 42 -25 71 -28 61 -32 110 -10 118 21 8 39 -9 74 -70
35 -63 222 -256 247 -256 36 0 104 41 110 67 13 50 -7 325 -27 383 -23 66 -24
89 -4 96 21 9 40 -10 66 -64 13 -26 48 -85 78 -130 31 -46 65 -99 76 -117 33
-53 45 -64 63 -58 34 13 122 74 122 84 0 6 -24 39 -54 72 -30 34 -76 96 -102
138 -62 97 -189 260 -202 258 -4 0 -38 -17 -76 -38z"/>
<path d="M3130 2212 c-16 -13 -23 -34 -30 -82 -4 -36 -13 -76 -18 -90 -6 -14
-16 -56 -22 -94 -6 -38 -17 -81 -24 -95 -7 -14 -16 -46 -20 -71 -4 -25 -12
-59 -18 -77 -14 -39 -2 -58 42 -67 17 -3 43 -9 59 -12 32 -7 34 -3 46 71 3 22
12 60 20 85 8 25 19 82 24 128 9 86 27 122 61 122 22 0 30 -20 30 -68 0 -34
11 -61 102 -235 15 -29 27 -59 28 -67 1 -8 16 -35 34 -60 32 -44 33 -45 106
-52 105 -11 110 -5 110 130 0 57 5 180 11 273 13 192 11 202 -50 197 l-36 -3
-17 -85 c-10 -48 -17 -133 -18 -196 0 -136 -11 -154 -59 -99 -17 19 -33 48
-36 63 -3 15 -17 48 -30 73 -14 26 -25 55 -25 64 0 9 -6 29 -14 43 -20 38 -62
133 -70 159 -5 16 -20 26 -49 33 -23 6 -52 15 -65 20 -33 14 -47 12 -72 -8z"/>
<path d="M4425 2174 c-55 -7 -133 -16 -172 -20 -47 -4 -78 -13 -87 -23 -11
-13 -12 -45 -5 -186 10 -201 31 -381 47 -397 11 -11 113 -1 362 33 111 15 125
21 128 50 6 49 -15 54 -146 34 -185 -28 -187 -29 -205 -10 -12 12 -17 34 -17
78 0 34 4 67 8 73 4 6 36 14 72 18 65 8 161 29 180 41 16 10 12 63 -5 73 -10
5 -42 2 -84 -9 -60 -15 -120 -23 -159 -20 -18 1 -42 62 -42 105 0 49 26 63
145 77 55 7 106 17 113 22 19 15 10 59 -13 66 -11 4 -65 2 -120 -5z"/>
<path d="M2700 1853 c-52 -35 -52 -53 -1 -104 32 -32 46 -39 79 -39 31 0 43 5
56 25 9 13 16 31 16 40 0 32 -30 73 -61 84 -43 15 -60 14 -89 -6z"/>
<path d="M4865 1777 c-51 -28 -58 -65 -21 -102 32 -32 58 -32 113 0 35 21 43
31 43 56 0 22 -8 34 -32 49 -42 25 -54 25 -103 -3z"/>
<path d="M3883 1653 c-17 -9 -37 -26 -43 -39 -17 -31 8 -70 58 -91 34 -14 39
-14 70 3 73 39 78 90 12 124 -46 24 -55 24 -97 3z"/>
</g>
</svg>
